<?xml version="1.0" encoding="UTF-8"?>
<svg width="128" height="128" xmlns="http://www.w3.org/2000/svg">
<defs>
    <radialGradient id="bgGrad">
        <stop offset="0%" style="stop-color:#1a1a1a;stop-opacity:1" />
        <stop offset="100%" style="stop-color:#000000;stop-opacity:1" />
    </radialGradient>
</defs>
<rect width="128" height="128" fill="url(#bgGrad)" stroke="#787873" stroke-width="3"/>

<!-- Stone fist -->
<ellipse cx="64" cy="75" rx="30" ry="25" fill="#787873" stroke="#4b4641" stroke-width="3"/>
<rect x="45" y="50" width="38" height="30" fill="#5a5751" stroke="#4b4641" stroke-width="3"/>
<!-- Knuckles/texture -->
<rect x="48" y="65" width="10" height="12" fill="#4b4641" opacity="0.5"/>
<rect x="59" y="68" width="10" height="12" fill="#4b4641" opacity="0.5"/>
<rect x="70" y="65" width="10" height="12" fill="#4b4641" opacity="0.5"/>

<!-- Impact effect -->
<line x1="30" y1="105" x2="50" y2="95" stroke="#ffd700" stroke-width="4" stroke-linecap="round"/>
<line x1="98" y1="105" x2="78" y2="95" stroke="#ffd700" stroke-width="4" stroke-linecap="round"/>
<line x1="50" y1="110" x2="64" y2="100" stroke="#ffd700" stroke-width="3" stroke-linecap="round"/>
<line x1="78" y1="110" x2="64" y2="100" stroke="#ffd700" stroke-width="3" stroke-linecap="round"/>

<!-- Ground impact waves -->
<path d="M 20 110 Q 64 105 108 110" fill="none" stroke="#8b7355" stroke-width="3"/>
<path d="M 15 118 Q 64 112 113 118" fill="none" stroke="#8b7355" stroke-width="2" opacity="0.7"/>

<!-- Motion lines -->
<line x1="45" y1="25" x2="50" y2="45" stroke="#a09b91" stroke-width="3" opacity="0.6" stroke-linecap="round"/>
<line x1="64" y1="20" x2="64" y2="45" stroke="#a09b91" stroke-width="3" opacity="0.6" stroke-linecap="round"/>
<line x1="83" y1="25" x2="78" y2="45" stroke="#a09b91" stroke-width="3" opacity="0.6" stroke-linecap="round"/>

</svg>